<?xml version="1.0" standalone="no"?>
<!DOCTYPE svg PUBLIC "-//W3C//DTD SVG 20010904//EN"
 "http://www.w3.org/TR/2001/REC-SVG-20010904/DTD/svg10.dtd">
<svg version="1.0" xmlns="http://www.w3.org/2000/svg"
 width="512.000000pt" height="512.000000pt" viewBox="0 0 512.000000 512.000000"
 preserveAspectRatio="xMidYMid meet">

<g transform="translate(0.000000,512.000000) scale(0.100000,-0.100000)"
fill="#000000" stroke="none">
<path d="M2226 4949 c-62 -15 -153 -68 -197 -116 -22 -24 -55 -74 -72 -111
-29 -63 -32 -76 -37 -210 l-5 -143 -84 -34 c-46 -19 -86 -37 -89 -40 -3 -3
-48 37 -101 88 -64 62 -116 103 -156 123 -55 27 -69 29 -170 29 -168 0 -180
-7 -451 -279 -272 -271 -279 -283 -279 -451 0 -101 2 -115 29 -170 20 -40 61
-92 123 -156 51 -53 91 -98 88 -101 -3 -3 -21 -43 -40 -89 l-34 -84 -144 -5
c-141 -5 -146 -6 -219 -43 -91 -44 -147 -102 -191 -195 l-32 -67 0 -336 0
-335 37 -76 c45 -91 103 -148 196 -191 63 -29 76 -32 210 -37 l143 -5 34 -84
c19 -46 37 -86 40 -89 3 -3 -37 -48 -88 -101 -62 -64 -103 -116 -123 -156 -27
-55 -29 -69 -29 -170 0 -168 7 -180 279 -451 271 -272 283 -279 451 -279 101
0 115 2 170 29 40 20 92 61 156 123 53 51 98 91 101 88 3 -3 43 -21 89 -40
l84 -34 5 -144 c5 -141 6 -146 43 -219 44 -91 102 -147 195 -191 l67 -32 335
0 335 0 67 32 c93 44 151 100 195 191 37 73 38 78 43 219 l5 144 84 34 c46 19
86 37 89 40 3 3 48 -37 101 -88 64 -62 116 -103 156 -123 55 -27 69 -29 170
-29 165 0 181 9 438 264 114 113 221 226 236 251 48 76 64 141 59 239 -6 121
-36 179 -155 302 -51 53 -91 98 -88 101 3 3 21 43 40 89 l34 84 144 5 c141 5
146 6 219 43 91 44 147 102 191 195 l32 67 0 335 0 335 -32 67 c-44 93 -100
151 -191 195 -73 37 -78 38 -219 43 l-144 5 -34 84 c-19 46 -37 86 -40 89 -3
3 37 48 88 101 62 64 103 116 123 156 27 55 29 69 29 170 0 168 -7 180 -279
451 -271 272 -283 279 -451 279 -101 0 -115 -2 -170 -29 -40 -20 -92 -61 -156
-123 -53 -51 -98 -91 -101 -88 -3 3 -43 21 -89 40 l-84 34 -5 143 c-5 134 -8
147 -37 210 -43 92 -100 151 -191 196 l-76 37 -315 2 c-174 1 -333 -3 -355 -8z
m648 -161 c55 -16 138 -99 154 -154 7 -24 12 -103 12 -191 0 -176 6 -190 93
-219 28 -9 95 -36 148 -60 142 -65 139 -66 282 74 128 123 160 142 242 142 91
0 108 -12 329 -229 133 -131 215 -221 227 -246 23 -50 25 -142 3 -193 -8 -21
-65 -87 -130 -153 -135 -137 -134 -134 -70 -276 24 -54 51 -122 60 -150 29
-87 43 -93 219 -93 88 0 167 -5 191 -12 55 -16 138 -99 154 -154 17 -57 17
-571 0 -628 -16 -55 -99 -138 -154 -154 -24 -7 -103 -12 -191 -12 -176 0 -190
-6 -219 -93 -9 -28 -36 -95 -60 -148 -65 -142 -65 -140 70 -278 65 -66 122
-132 130 -153 22 -51 20 -143 -3 -193 -12 -25 -94 -115 -227 -246 -221 -217
-238 -229 -329 -229 -82 0 -114 19 -242 142 -142 138 -149 140 -261 84 -37
-18 -102 -46 -145 -61 -115 -41 -117 -45 -117 -228 0 -88 -5 -167 -12 -191
-16 -55 -99 -138 -154 -154 -57 -17 -571 -17 -628 0 -55 16 -138 99 -154 154
-7 24 -12 103 -12 191 0 182 -2 187 -117 228 -43 16 -109 43 -148 62 -113 54
-117 52 -258 -85 -128 -123 -160 -142 -242 -142 -91 0 -108 12 -329 229 -133
131 -215 221 -227 246 -23 50 -25 142 -3 193 8 21 65 87 130 153 134 136 137
145 80 257 -18 37 -46 102 -61 145 -41 115 -45 117 -228 117 -88 0 -167 5
-191 12 -55 16 -138 99 -154 154 -17 57 -17 571 0 628 16 55 99 138 154 154
24 7 103 12 191 12 176 0 190 6 219 93 9 28 36 95 60 148 65 142 65 140 -70
278 -65 66 -122 132 -130 153 -22 51 -20 143 3 193 12 25 94 115 227 246 221
217 238 229 329 229 82 0 114 -19 242 -142 141 -138 149 -140 261 -85 37 19
102 47 145 62 115 41 117 45 117 228 0 88 5 167 12 191 15 51 99 137 148 153
51 16 580 17 634 1z"/>
<path d="M2388 3585 c-370 -62 -688 -330 -809 -683 -75 -216 -76 -460 -4 -671
118 -347 414 -611 770 -687 280 -60 586 4 820 171 71 50 191 171 240 239 88
124 161 308 184 463 38 257 -36 551 -192 759 -54 71 -183 196 -249 242 -214
147 -502 210 -760 167z m387 -173 c325 -89 554 -320 641 -648 27 -103 26 -312
-3 -419 -87 -320 -318 -551 -638 -638 -107 -29 -316 -30 -419 -3 -386 103
-648 416 -673 805 -16 248 77 490 257 671 132 131 282 211 465 246 94 18 278
11 370 -14z"/>
</g>
</svg>
