<?xml version="1.0" standalone="no"?>
<!DOCTYPE svg PUBLIC "-//W3C//DTD SVG 20010904//EN"
 "http://www.w3.org/TR/2001/REC-SVG-20010904/DTD/svg10.dtd">
<svg version="1.0" xmlns="http://www.w3.org/2000/svg"
 width="512.000000pt" height="512.000000pt" viewBox="0 0 512.000000 512.000000"
 preserveAspectRatio="xMidYMid meet">

<g transform="translate(0.000000,512.000000) scale(0.100000,-0.100000)"
fill="#000000" stroke="none">
<path d="M4260 4931 c-302 -43 -403 -61 -429 -76 -90 -53 -95 -203 -8 -260 51
-33 82 -34 255 -10 92 13 168 22 170 20 5 -5 -183 -151 -323 -250 -792 -562
-1692 -934 -2648 -1095 -329 -55 -571 -79 -917 -89 -231 -6 -248 -8 -282 -29
-81 -50 -99 -166 -37 -237 48 -54 76 -59 319 -52 1121 33 2183 324 3146 862
303 169 687 428 917 618 26 22 50 38 52 35 2 -2 -7 -78 -20 -168 -27 -186 -24
-219 26 -269 27 -28 82 -51 119 -51 32 1 98 39 120 70 19 27 31 88 81 428 32
218 59 422 59 453 0 96 -65 160 -160 158 -25 -1 -223 -27 -440 -58z"/>
<path d="M3805 3481 c-49 -12 -83 -40 -105 -85 -20 -43 -20 -45 -18 -1604 3
-1559 3 -1561 24 -1588 11 -15 33 -37 48 -48 27 -21 37 -21 646 -21 609 0 619
0 646 21 15 11 37 33 48 48 21 27 21 29 24 1588 l2 1561 -21 43 c-12 26 -36
53 -57 66 l-37 23 -585 2 c-322 1 -599 -2 -615 -6z m995 -1671 l0 -1360 -400
0 -400 0 0 1360 0 1360 400 0 400 0 0 -1360z"/>
<path d="M1965 2841 c-49 -12 -83 -40 -105 -85 -20 -43 -20 -48 -18 -1284 3
-1235 3 -1241 24 -1268 11 -15 33 -37 48 -48 27 -21 37 -21 646 -21 609 0 619
0 646 21 15 11 37 33 48 48 21 27 21 33 24 1268 2 1240 2 1241 -19 1284 -12
26 -36 53 -57 66 l-37 23 -585 2 c-322 1 -599 -2 -615 -6z m995 -1351 l0
-1040 -400 0 -400 0 0 1040 0 1040 400 0 400 0 0 -1040z"/>
<path d="M125 2201 c-49 -12 -83 -40 -105 -85 -20 -43 -20 -51 -18 -964 3
-912 3 -921 24 -948 11 -15 33 -37 48 -48 27 -21 37 -21 646 -21 609 0 619 0
646 21 15 11 37 33 48 48 21 27 21 36 24 948 2 917 2 921 -19 964 -12 26 -35
53 -57 66 l-37 23 -585 2 c-322 1 -599 -2 -615 -6z m995 -1031 l0 -720 -400 0
-400 0 0 720 0 720 400 0 400 0 0 -720z"/>
</g>
</svg>
